<svg width="52" height="52" fill="none" xmlns="http://www.w3.org/2000/svg"><g clip-path="url(#clip0)"><path d="M45.145 43.538l-2.08-1.89c1.75-1.939 3.168-4.066 4.16-6.335l2.6 1.134c-1.134 2.553-2.694 4.917-4.68 7.091zM52 26C52 11.676 40.324 0 26 0c-1.938 0-3.83.19-5.625.615l.614 2.789A22.008 22.008 0 0126 2.836c12.764 0 23.164 10.4 23.164 23.164a18.9 18.9 0 01-.284 3.356l2.79.473c.236-1.182.33-2.505.33-3.829zM8.13 11.204L5.91 9.407c-.71.899-1.277 1.655-1.797 2.459l2.363 1.56c.52-.71 1.04-1.419 1.655-2.222zm25.48 39.661l-.85-2.694c-2.174.662-4.444 1.04-6.76 1.04C13.236 49.164 2.836 38.764 2.836 26c0-2.364.331-4.68 1.04-6.902l-2.694-.85C.378 20.752 0 23.352 0 26c0 14.324 11.676 26 26 26 2.6 0 5.153-.378 7.61-1.135zM26 9.785c2.884 0 5.673.757 8.13 2.175l1.42-2.458A19.251 19.251 0 0026 6.949C15.505 6.95 6.95 15.505 6.95 26h2.835c0-8.934 7.28-16.215 16.215-16.215zM14.75 37.676a13.267 13.267 0 01-2.128-2.552l-2.411 1.512a17.522 17.522 0 002.6 3.12l1.938-2.08zM45.05 26h-2.835c0 8.934-7.28 16.215-16.215 16.215-2.884 0-5.673-.757-8.13-2.175l-1.42 2.458A19.252 19.252 0 0026 45.051c10.495 0 19.05-8.556 19.05-19.051zm-3.26-10.636c-.663-1.088-1.56-2.128-2.554-3.12l-1.938 2.08c.851.803 1.56 1.654 2.127 2.552l2.364-1.512zm-6.572 15.978V20.658L26 15.27l-9.218 5.39v10.73L26 36.731l9.218-5.39zm-15.6-9.076L26 18.578l6.382 3.735v7.422L26 33.422l-6.382-3.735v-7.422z" fill="#1F65D9"/></g><defs><clipPath id="clip0"><path fill="#fff" d="M0 0h52v52H0z"/></clipPath></defs></svg>