<svg width="54" height="54" fill="none" xmlns="http://www.w3.org/2000/svg"><path d="M44.836 42.871l9.016-10.692-9.41-25.465L17.49 2 0 22.751l9.46 25.417 26.901 4.763 6.603-7.825L51.93 54 54 51.959l-9.164-9.088zm-2.07-2.09l-4.68-4.617c2.956-3.693 3.99-8.796 2.217-13.558l-2.76 1.02c2.12 5.735-.886 12.15-6.75 14.288-1.92.68-3.892.875-5.813.535l-.542 2.867a13.65 13.65 0 002.463.243c1.676 0 3.35-.292 4.927-.875a14.535 14.535 0 004.238-2.43l4.828 4.763-5.715 6.755-23.551-4.18L3.35 23.335 18.673 5.159l23.6 4.13 8.229 22.307-7.736 9.185zM22.37 37.622l-1.134 2.673c-.886-.34-1.724-.826-2.61-1.458l1.724-2.332c.69.486 1.33.826 2.02 1.117zm7.095-24.056l-.542 2.868c-1.922-.34-3.942-.146-5.814.534-5.864 2.139-8.869 8.553-6.75 14.337l-2.76 1.02c-2.759-7.29 1.084-15.405 8.475-18.078 2.414-.875 4.927-1.118 7.39-.68zm5.813 2.479l-1.773 2.381c-.69-.486-1.33-.875-2.02-1.166l1.133-2.673c.936.34 1.774.826 2.66 1.458z" fill="#1F65D9"/></svg>