<svg width="54" height="54" fill="none" xmlns="http://www.w3.org/2000/svg"><g clip-path="url(#clip0)"><path d="M25.268 43.657c-2.645 0-5.243-.614-7.651-1.89-2.598-1.37-4.818-3.353-6.376-5.856l2.408-1.511a13.536 13.536 0 005.243 4.817 13.853 13.853 0 0010.532.945c3.542-1.087 6.376-3.495 8.077-6.801l2.503 1.322a16.479 16.479 0 01-9.777 8.17 15.81 15.81 0 01-4.96.804zm-6.046-23.993H16.39v3.117h2.834v-3.117zm14.122 0H30.51v3.117h2.834v-3.117zM9.918 45.026c-1.983-1.794-3.636-3.967-4.912-6.423l-2.503 1.322a25.65 25.65 0 005.479 7.18l1.936-2.079zm33.864 1.559a25.896 25.896 0 007.793-17.995l-2.834-.047c-.283 12.469-10.627 22.67-23.142 22.67-3.212 0-6.33-.66-9.305-1.936l-1.133 2.598c3.353 1.464 6.848 2.22 10.438 2.22 6.848-.095 13.318-2.74 18.183-7.51zm2.976-33.675a21.74 21.74 0 00-2.22-2.74l-2.031 1.984a20.342 20.342 0 011.936 2.362l2.315-1.606zm-7.274-6.848c-1.417-.898-2.598-1.512-3.826-1.984l-1.086 2.645c1.04.425 2.126.992 3.353 1.795l1.56-2.456zM25.646 4.834c2.03 0 4.014.236 5.903.755l.709-2.739A25.908 25.908 0 0025.646 2C12.846 2 2.078 11.115 0 23.631l2.787.473c1.889-11.147 11.476-19.27 22.859-19.27z" fill="#1F65D9"/></g><defs><clipPath id="clip0"><path fill="#fff" d="M0 0h54v54H0z"/></clipPath></defs></svg>