<svg width="585" height="682" fill="none" xmlns="http://www.w3.org/2000/svg"><g clip-path="url(#clip0)"><path opacity=".02" d="M584.625 397.74v113.479l-97.375 56.927-97.375 56.927-48.688 28.463L292.5 682l-48.688-28.464-48.687-28.463-97.375-56.927L0 511.219V397.74l97.375-56.553v113.48l97.375 56.927 48.688 28.463 48.687 28.464 48.688-28.464 48.687-28.463 97.375-56.927V340.813l97.75 56.927zm-.375-227.334l-97.375-56.927L389.5 56.552l-48.687-28.088L292.125 0l-48.687 28.463-48.688 28.464-97.375 56.552L0 170.406v113.48l97.375-56.553 97.375-56.927 48.688-28.089v283.886l48.687 28.464 48.688-28.464v-284.26l48.687 28.463 97.375 56.927 97.375 56.927V170.406z" fill="#fff"/></g><defs><clipPath id="clip0"><path fill="#fff" d="M0 0h584.625v682H0z"/></clipPath></defs></svg>